<svg viewBox="0 0 200 200" xmlns="http://www.w3.org/2000/svg">
  <path fill="#FFBDCA" d="M45.3,-59.1C58.9,-51.1,70.2,-37.5,74.1,-22.3C78,-7.1,74.4,9.7,67.2,23.9C60,38.1,49.2,49.8,36.3,57.2C23.5,64.7,8.6,67.9,-6.3,65.8C-21.3,63.7,-36.3,56.4,-48.4,45.4C-60.5,34.3,-69.6,19.4,-71.2,3.7C-72.8,-12,-66.8,-27.7,-56.2,-37.3C-45.7,-46.9,-30.5,-50.5,-16.5,-58.4C-2.5,-66.3,10.4,-78.6,24.3,-77.6C38.2,-76.7,52.9,-62.5,63.2,-48.4C73.4,-34.3,79.3,-20.2,84.7,-3.7L90,12.8L45.3,-59.1Z" transform="translate(100 100)" />
</svg>