<svg width="200" height="200" viewBox="0 0 200 200" fill="none" xmlns="http://www.w3.org/2000/svg">
  <!-- Body -->
  <ellipse cx="100" cy="120" rx="45" ry="40" fill="#D8C2FF"/>
  
  <!-- Head -->
  <circle cx="100" cy="70" r="35" fill="#D8C2FF"/>
  
  <!-- Ears -->
  <path d="M75 45 L85 65 L65 55 Z" fill="#D8C2FF" stroke="#C2A8F7" stroke-width="2"/>
  <path d="M125 45 L115 65 L135 55 Z" fill="#D8C2FF" stroke="#C2A8F7" stroke-width="2"/>
  
  <!-- Inner Ears -->
  <path d="M75 48 L83 62 L68 55 Z" fill="#FFBDCA"/>
  <path d="M125 48 L117 62 L132 55 Z" fill="#FFBDCA"/>
  
  <!-- Eyes -->
  <path d="M85 65 Q85 60 80 62 Q85 64 85 65 Z" fill="#333333"/>
  <path d="M115 65 Q115 60 120 62 Q115 64 115 65 Z" fill="#333333"/>
  
  <!-- Muzzle -->
  <ellipse cx="100" cy="80" rx="10" ry="7" fill="white"/>
  
  <!-- Nose -->
  <path d="M100 77 L97 80 L103 80 Z" fill="#FFBDCA"/>
  
  <!-- Mouth -->
  <path d="M97 83 L103 83" stroke="#333333" stroke-width="1" stroke-linecap="round"/>
  <path d="M100 80 L100 85" stroke="#333333" stroke-width="1" stroke-linecap="round"/>
  
  <!-- Whiskers -->
  <path d="M90 80 L75 78 M90 82 L75 82 M90 84 L75 86" stroke="#C2A8F7" stroke-width="1" stroke-linecap="round"/>
  <path d="M110 80 L125 78 M110 82 L125 82 M110 84 L125 86" stroke="#C2A8F7" stroke-width="1" stroke-linecap="round"/>
  
  <!-- Tail -->
  <path d="M140 110 Q160 90 165 120 Q167 140 148 125 Z" fill="#D8C2FF" stroke="#C2A8F7" stroke-width="2"/>
  
  <!-- Arms -->
  <path d="M70 110 Q60 120 55 135" stroke="#C2A8F7" stroke-width="5" stroke-linecap="round"/>
  <path d="M130 110 Q140 120 145 135" stroke="#C2A8F7" stroke-width="5" stroke-linecap="round"/>
  
  <!-- Legs -->
  <path d="M80 150 Q75 160 75 170" stroke="#C2A8F7" stroke-width="5" stroke-linecap="round"/>
  <path d="M120 150 Q125 160 125 170" stroke="#C2A8F7" stroke-width="5" stroke-linecap="round"/>
</svg>