<svg width="200" height="200" viewBox="0 0 200 200" fill="none" xmlns="http://www.w3.org/2000/svg">
  <!-- Body -->
  <ellipse cx="100" cy="120" rx="50" ry="40" fill="white"/>
  
  <!-- Head -->
  <circle cx="100" cy="70" r="35" fill="white"/>
  
  <!-- Ear Patches -->
  <circle cx="75" cy="45" r="15" fill="#333333"/>
  <circle cx="125" cy="45" r="15" fill="#333333"/>
  
  <!-- Eye Patches -->
  <ellipse cx="80" cy="70" rx="15" ry="13" fill="#333333"/>
  <ellipse cx="120" cy="70" rx="15" ry="13" fill="#333333"/>
  
  <!-- Eyes -->
  <circle cx="80" cy="70" r="5" fill="white"/>
  <circle cx="120" cy="70" r="5" fill="white"/>
  <circle cx="80" cy="70" r="2" fill="#333333"/>
  <circle cx="120" cy="70" r="2" fill="#333333"/>
  
  <!-- Nose -->
  <path d="M95 85 L105 85 L100 90 Z" fill="#333333"/>
  
  <!-- Mouth -->
  <path d="M95 93 Q100 97 105 93" stroke="#333333" stroke-width="2" stroke-linecap="round"/>
  
  <!-- Limbs -->
  <path d="M75 110 Q65 120 60 135" stroke="#333333" stroke-width="5" stroke-linecap="round"/>
  <path d="M125 110 Q135 120 140 135" stroke="#333333" stroke-width="5" stroke-linecap="round"/>
  <path d="M85 150 Q80 160 80 170" stroke="#333333" stroke-width="5" stroke-linecap="round"/>
  <path d="M115 150 Q120 160 120 170" stroke="#333333" stroke-width="5" stroke-linecap="round"/>
  
  <!-- Belly Patch -->
  <ellipse cx="100" cy="120" rx="20" ry="15" fill="#333333"/>
</svg>