<svg width="1200" height="300" viewBox="0 0 1200 300" xmlns="http://www.w3.org/2000/svg">
  <path d="M0,192L48,197.3C96,203,192,213,288,229.3C384,245,480,267,576,250.7C672,235,768,181,864,170.7C960,160,1056,192,1152,197.3C1248,203,1344,181,1392,170.7L1440,160L1440,320L1392,320C1344,320,1248,320,1152,320C1056,320,960,320,864,320C768,320,672,320,576,320C480,320,384,320,288,320C192,320,96,320,48,320L0,320Z" 
  fill="#C5F7E2" fill-opacity="0.6"/>
  <path d="M0,160L48,176C96,192,192,224,288,213.3C384,203,480,149,576,117.3C672,85,768,75,864,101.3C960,128,1056,192,1152,208C1248,224,1344,192,1392,176L1440,160L1440,320L1392,320C1344,320,1248,320,1152,320C1056,320,960,320,864,320C768,320,672,320,576,320C480,320,384,320,288,320C192,320,96,320,48,320L0,320Z" 
  fill="#A6D1E6" fill-opacity="0.4"/>
  <path d="M0,64L48,80C96,96,192,128,288,133.3C384,139,480,117,576,112C672,107,768,117,864,133.3C960,149,1056,171,1152,165.3C1248,160,1344,128,1392,112L1440,96L1440,320L1392,320C1344,320,1248,320,1152,320C1056,320,960,320,864,320C768,320,672,320,576,320C480,320,384,320,288,320C192,320,96,320,48,320L0,320Z" 
  fill="#D8C2FF" fill-opacity="0.3"/>
</svg>